<svg width="49" height="44" fill="none" xmlns="http://www.w3.org/2000/svg"><path fill-rule="evenodd" clip-rule="evenodd" d="M4.1221 32.8632c.4834-3.0919-.869-6.2613-2.324-9.1774-.1898-.3801-.3807-.756-.569-1.1268-.3985-.7845-.7856-1.5468-1.1277-2.2805a1.1125 1.1125 0 01-.072-.7187l.9203-3.8571a1.0822 1.0822 0 01.7302-.7859c1.9692-.6204 8.2575-2.8541 8.823-6.1372.0103-.0673.0463-.1241.0926-.1707l5.3627-5.1962c.1338-.1293.3497-.1138.468.031.5039.636 1.9075 2.0527 3.995 1.3546l-.6479-.6566c-.1285-.124-.1233-.3309.0052-.455L22.2311 1.36a.302.302 0 01.2159-.0879h7.476c.2674 0 .4164.3154.2468.5223L27.7686 4.726c-.1182.15-.0874.367.072.4705.4796.3137 1.4769.9686 2.5314 1.661.8224.54 1.6796 1.1029 2.3532 1.5446.7816.5119 1.8357.1913 2.1903-.6773.396-.9669.7661-2.4714.7713-4.7102 0-.0362.0052-.0776.0205-.1138L36.746.2018c.0976-.2481.437-.274.5707-.0413.5091.8893 1.4191 2.7765 1.4191 4.9791l.4987-.362c.1389-.1033.3342-.0723.4371.0621l1.09 1.427c.0463.062.0668.1448.0617.2224-.072.7704-.2725 5.0152 3.4347 6.7163.0668.031.1234.0827.1542.1499l4.5247 9.0999a.3484.3484 0 01.0308.1448v3.8313c0 .5843-.2468 1.1375-.6839 1.5253-1.7738 1.5821-6.4116 5.9718-6.6944 9.012a.314.314 0 01-.3136.2843h-7.9747c-.0514 0-.1028-.0103-.1491-.0362-.5142-.2791-3.229-3.857-3.7791-7.3264-.0412-.2585-.3651-.3568-.545-.1603l-1.7843 1.9854a.8626.8626 0 01-.6478.2896.5583.5583 0 01-.5501-.4654c-.2057-1.2099-1.1209-4.3741-4.9566-4.3741-2.0567 0-5.2599.7962-8.2318 1.6959 0 0-3.2907 1.0341-5.7227 4.3431-.0822.1138-.216.181-.3599.181H4.5695c-.2777 0-.4885-.2482-.4474-.5223zM40.52 43.1885c-.1696.667-.946.9668-1.5168.5791-1.0488-.7135-2.6325-1.9596-4.0671-3.7899-.2107-.2689-.0205-.667.324-.667h5.7073a.4127.4127 0 01.401.517l-.8484 3.3608z" fill="#0E8784"/></svg>