<svg width="52" height="50" fill="none" xmlns="http://www.w3.org/2000/svg"><path fill-rule="evenodd" clip-rule="evenodd" d="M28.2744 5.0495V.0607L22.8308 0 20.79 3.3863l2.4948 2.4956 4.9896-.8324zm-5.8212 5.8212l-6.6528-6.6536-3.3264 3.3272 5.6732 5.0528 4.306-1.7264zm6.9946 3.891l-3.3214-2.4158.6037-2.7168 5.7023-.4208 7.4844 5.8204-1.6632 4.9896-2.4948 1.664-2.4948-1.664v-2.4948l-2.4948-3.3264-1.3214.5646zm19.6166 32.6994h-1.6632a.8316.8316 0 010-1.6632h1.6632a.8316.8316 0 01.8316.8316.8316.8316 0 01-.8316.8316zm0-11.6424h1.6633a.8316.8316 0 000-1.6632h-1.6633a.8316.8316 0 000 1.6632zm-9.9792 0l4.9896-3.3264v-3.3264l-4.9896-4.9896-3.3264 3.3264-3.3264-3.3264-3.3264 2.4948 3.3264 4.158-2.4948 4.9896-2.4948-4.158-5.8212-2.4948 3.3264-6.6528 2.4948-3.3264-5.8212-3.3264-3.3264 3.3264L7.4844 8.3759.8316 15.8603l1.9543 8.0515L0 26.6711l2.4948 7.4844 19.9584 9.9792 2.4948-4.158 4.9896 3.3264 3.3264 6.6528 4.158-6.6528h6.6528l.8316-4.9896-5.8212-2.4948z" fill="#0E8784"/></svg>