<svg width="14" height="13" fill="none" xmlns="http://www.w3.org/2000/svg"><path fill-rule="evenodd" clip-rule="evenodd" d="M3.4645.8427c-.5858-.5858-1.5356-.5858-2.1214 0-.5857.5857-.5857 1.5355 0 2.1213l3.5356 3.5355L1.343 10.035c-.5857.5858-.5857 1.5356 0 2.1214.5858.5858 1.5356.5858 2.1214 0L7 8.6208l3.5355 3.5356c.5858.5858 1.5356.5858 2.1214 0 .5857-.5858.5857-1.5356 0-2.1214L9.1213 6.4995 12.657 2.964c.5857-.5858.5857-1.5355 0-2.1213-.5858-.5858-1.5356-.5858-2.1214 0L7 4.3782 3.4645.8427z" fill="#333D4B"/></svg>