<svg width="42" height="51" fill="none" xmlns="http://www.w3.org/2000/svg"><path fill-rule="evenodd" clip-rule="evenodd" d="M6.019 6.968a1.6948 1.6948 0 01-.1246-.074h.0084a.2957.2957 0 01.0096-.0146c.0072-.0106.0153-.0224.021-.0354a.5035.5035 0 01.0347-.0111c.0118-.0035.0236-.007.0347-.0112.0653.0467.088.0958.1118.1475.0117.0252.0236.051.041.0775 2.4639 1.5473 3.8416.7167 4.8055-1.4416.1333-.3111.2611-.6472.3861-1.0056 1.1385-3.3438 3.8169-3.3845 6.4073-3.4238.829-.0126 1.649-.025 2.4066-.1456 1.8278-.2861 1.2445 1.4166.4528 2.236-.2613.274-.5685.5047-.8865.7436-.801.6016-1.6714 1.2553-2.0552 2.7843.7388 0 1.4459.0046 2.1315.009 1.5055.01 2.9064.019 4.3074-.023 2.6195-.0777 3.0639.875 1.6195 2.9945-.3164.4672-.5723.9778-.8277 1.4873v.0001c-.3186.6356-.6363 1.2696-1.0696 1.8154-1.5139 1.8944-1.4805 3.1889 1.0028 4.0722.625.2222 1.4306.7778 1.5889 1.3417.7538 2.6712 2.5585 4.6784 4.3579 6.6798 1.9937 2.2174 3.9809 4.4277 4.5254 7.5257.0254.1426.0427.2746.0585.3955.0867.6613.1299.9906 1.2054.899 1.8334-.1722 4.0028-.1945 4.5139 2.1444.4917 2.2306-1.1 3.65-2.8028 4.8278-.2319.1585-.4087.3909-.6061.6506h-.0001v.0001c-.0863.1135-.1766.2321-.2771.3521.1571.6853.751.7035 1.307.7205.555.017 1.0722.0329 1.0791.71.0111 1.1278-1.1972 1.6528-2.0333 1.9112-4.2639 1.325-8.7556 1.775-13.1278 1.6861-2.3339-.0515-4.3768.6944-6.4087 1.4363-1.4746.5384-2.9435 1.0748-4.5135 1.3026-.2299.0343-.4557.0857-.6858.1381-.8321.1894-1.7219.3919-3.0753-.152 1.6049-.5829 2.6651-1.7646 3.7331-2.9549 1.5939-1.7764 3.2051-3.5721 6.6696-3.4257a276.0611 276.0611 0 01-1.5027-.6302l-.003-.0012-.0002-.0001h-.0001c-.7976-.3366-1.2987-.548-1.8106-.7352-2.3306-.8416-2.6417-2.4777-.9028-4.3722.9806-1.0639 1.6583-2.2055-.5639-2.6666-1.2216-.2518-.9301-.7745-.6069-1.354.2332-.4181.4829-.8658.193-1.2627-.3722-.5111.85-.6556 1.5556-.5667 2.0889.2695 5.0416.6306 4.2305-2.4222-.0658-.2467-.1283-.5247-.1949-.821v-.0004c-.4611-2.0524-1.1202-4.9867-4.494-4.5425-3.6555.4806-4.8027-.425-2.5166-3.7417-.465-.208-1.1084.0323-1.7251.2627-1.17.4371-2.2442.8384-1.8221-1.9265.025-.175-.3195-.5945-.389-.575-.2657.0842-.5373.3475-.8072.6093v.0001c-.585.5673-1.1624 1.1273-1.6566-.1594-.3526-.9174.2441-1.1599.9445-1.4446.7122-.2895 1.5316-.6225 1.5694-1.7527-.0552-.1789-.4664-.1829-.909-.1872-.7394-.0072-1.5665-.0152-.9688-.8405 1.9896-2.7451.4674-3.8988-1.2356-5.1895h-.0001l-.0002-.0001c-.1753-.133-.3525-.2672-.528-.4049-.2302-.1792-.1464-.4495-.0567-.7385.0423-.1364.0859-.277.0984-.4143 0-.0041-.0014-.0097-.0028-.0152-.0014-.0056-.0028-.0112-.0028-.0153.0083-.1306-.0055-.264-.0861-.3834-.046-.0316-.0883-.055-.131-.0787zM1.4777 27.1856c-.5611-.0916-1.2-.6805-1.139-1.5277.1223-1.5556 4.864-4.725 6.9695-4.6 1.9392.1067 2.5645 1.4245 3.1523 2.6633.2382.502.4702.991.7811 1.3811-.0917 1.8333-1.2 2.8694-2.3917 2.875-2.34.0291-4.6977-.3555-7.0273-.7355l-.345-.0562zM8.1917 1.8773c-2.625.7-4.139 2.0944-3.9528 4.9139-1.7584.173-1.2483.888-.7782 1.5472.0735.103.146.2048.2087.3028.1358-.3088.372-.5989.6157-.8982.1553-.1907.3137-.3853.451-.5907.1542-.0399.3087-.0806.4634-.1214h.0002a68.839 68.839 0 01.7309-.1897c.2367-.522.6438-.9634 1.0567-1.4111.8417-.9126 1.7075-1.8514 1.2044-3.5528zM3.575 9.4245c.4222-.1472.3083-.4416.0917-.7833-.1084.2389-.1723.4889-.0917.7833z" fill="#0E8784"/></svg>