<svg width="218" height="24" fill="none" xmlns="http://www.w3.org/2000/svg"><path fill-rule="evenodd" clip-rule="evenodd" d="M69.8319 21.5112c0 .4679-.2357.7019-.7071.7019H60.82c-.2006 0-.3636-.0585-.489-.1755-.1254-.117-.1881-.2822-.1881-.4958 0-.1831.0427-.3306.1279-.4425.0853-.1119.2182-.2034.3987-.2746l.6469-.1984c.1605-.0509.2859-.1475.3762-.2899.0902-.1424.1354-.3458.1354-.6103v-8.8188c0-.1424-.0351-.2619-.1053-.3586-.0703-.0966-.2006-.1856-.3912-.267l-.8726-.2899c-.2307-.1118-.3962-.2314-.4965-.3585-.1003-.1272-.1505-.2823-.1505-.4654 0-.183.0627-.333.1881-.45l.0493-.0412c.1201-.0895.2767-.1343.4698-.1343h1.3202l-.0104-.0892c-.0282-.1783-.0987-.3495-.2116-.5135a213.2158 213.2158 0 00-.5115-.74c-.1906-.2746-.3611-.6026-.5115-.984-.1505-.3815-.2257-.852-.2257-1.4114 0-1.3325.4514-2.398 1.3541-3.1964.9027-.7985 2.1865-1.1977 3.8515-1.1977 1.0732 0 1.9633.1729 2.6704.5187.7071.3459 1.2362.8061 1.5873 1.3808.351.5747.5265 1.2028.5265 1.8843 0 .8036-.2081 1.4062-.6243 1.808-.4163.4018-.9504.6027-1.6023.6027-.7222 0-1.3039-.234-1.7452-.7019s-.662-1.0883-.662-1.8614V2.6835c0-.356-.0702-.618-.2106-.7857-.1404-.1679-.3561-.2518-.647-.2518-.3711 0-.6519.1272-.8425.3815-.1905.2542-.2858.6204-.2858 1.0985 0 .4882.1128.946.3385 1.3732s.504.8264.835 1.1977c.331.3712.662.7272.9929 1.068.331.3407.6094.6764.835 1.007l.0644.099c.1218.1981.2031.3952.2437.5915l.0137.08h2.2284c.2306 0 .4087.0483.534.145.1254.0966.1881.2466.1881.45 0 .3052-.1304.5544-.3912.7477-.2607.1932-.672.2898-1.2336.2898h-1.0682v9.5054c0 .2848.0426.5035.1279.6561.0852.1526.2231.2441.4137.2746l1.2939.1984c.2306.0305.4011.1043.5115.2212.1103.117.1655.2772.1655.4806zm-29.6235.351c-.9027.4373-1.9558.656-3.1594.656-1.2738 0-2.4147-.2695-3.4228-.8086-1.008-.5391-1.8028-1.3198-2.3846-2.342-.5817-1.0223-.8726-2.2658-.8726-3.7305 0-1.4138.3034-2.6777.9102-3.7915s1.4519-1.9936 2.5351-2.6395c1.0832-.646 2.347-.9689 3.7913-.9689 1.2337 0 2.2743.1831 3.1219.5493.8475.3662 1.4944.862 1.9408 1.4876.4463.6256.6694 1.3249.6694 2.0979 0 .8137-.2331 1.452-.6995 1.9148-.4664.4628-1.1008.6942-1.9032.6942-.8225 0-1.4468-.2365-1.8731-.7094-.4263-.473-.6394-1.1215-.6394-1.9454v-.9764c0-.4984-.0903-.8748-.2708-1.1291-.1806-.2543-.4363-.3814-.7673-.3814-.331 0-.6294.1348-.8952.4043-.2658.2695-.4714.6739-.6168 1.213-.1455.5391-.2182 1.2053-.2182 1.9987 0 1.1392.168 2.0954.504 2.8684.336.773.7949 1.3528 1.3766 1.7393.5818.3866 1.2437.5798 1.986.5798.7422 0 1.364-.1093 1.8655-.328.5015-.2187.8877-.5874 1.1585-1.1062.1504-.1424.2683-.2339.3535-.2746.0853-.0407.168-.061.2483-.061.1003.0101.183.0585.2482.1449.0652.0865.0928.2212.0828.4043-.0803.9969-.3862 1.8767-.9178 2.6396-.5316.7629-1.2487 1.363-2.1514 1.8004zm15.2932-.3052c-1.1284.6205-2.4398.9307-3.9343.9307-1.4543 0-2.7306-.3026-3.8289-.9078-1.0983-.6052-1.9533-1.4418-2.5652-2.5099-.6118-1.068-.9177-2.3038-.9177-3.7075 0-1.3427.3209-2.5506.9629-3.6237.6419-1.0731 1.5295-1.925 2.6629-2.5556s2.4373-.946 3.9117-.946c1.4644 0 2.7432.3052 3.8365.9155 1.0932.6103 1.9458 1.4545 2.5576 2.5327.6118 1.0782.9177 2.3242.9177 3.7381 0 1.3427-.3184 2.5455-.9553 3.6084s-1.5196 1.9046-2.6479 2.5251zm-2.7909-.6561c-.3109.0611-.6143-.0763-.9102-.4119-.2959-.3357-.5767-.9002-.8425-1.6936-.2658-.7934-.519-1.836-.7598-3.1278-.2307-1.2918-.361-2.3547-.3911-3.1888-.0301-.8341.0301-1.4647.1805-1.8919.1505-.4272.3811-.6764.6921-.7476.3109-.061.6143.0763.9102.4119.2959.3357.5792.9002.85 1.6936.2708.7934.5266 1.836.7673 3.1278.2407 1.2918.3736 2.3573.3987 3.1964.0251.8392-.0401 1.4724-.1956 1.8996-.1554.4272-.3886.6713-.6996.7323zm26.9154 1.3122c.4714 0 .7071-.234.7071-.7019 0-.2034-.0551-.3636-.1655-.4806-.1103-.1169-.2808-.1907-.5115-.2212l-1.2939-.1984c-.1905-.0305-.3284-.122-.4137-.2746-.0852-.1526-.1279-.3713-.1279-.6561v-9.5054h1.0682c.5617 0 .9729-.0966 1.2337-.2898.2608-.1933.3912-.4425.3912-.7477 0-.2034-.0627-.3534-.1881-.45-.1254-.0967-.3034-.145-.5341-.145h-2.2283l-.0138-.08c-.0406-.1963-.1218-.3934-.2437-.5914l-.0643-.0991c-.2257-.3306-.504-.6663-.835-1.007a34.1227 34.1227 0 01-.993-1.068c-.3309-.3713-.6093-.7705-.835-1.1977-.2256-.4272-.3385-.885-.3385-1.3732 0-.478.0953-.8443.2859-1.0985.1906-.2543.4714-.3815.8425-.3815.2909 0 .5065.084.6469.2518.1405.1678.2107.4297.2107.7857v1.358c0 .773.2206 1.3934.6619 1.8613.4414.468 1.0231.7019 1.7453.7019.6519 0 1.186-.2009 1.6022-.6027.4163-.4018.6244-1.0044.6244-1.808 0-.6815-.1755-1.3096-.5266-1.8843-.351-.5747-.8801-1.035-1.5872-1.3808-.7071-.3458-1.5973-.5187-2.6705-.5187-1.665 0-2.9488.3992-3.8515 1.1977-.9027.7984-1.354 1.864-1.354 3.1964 0 .5595.0752 1.0299.2256 1.4113.1505.3815.321.7095.5116.9841.1905.2747.3611.5213.5115.74.1128.164.1834.3352.2116.5135l.0103.0892h-1.3202c-.1931 0-.3497.0448-.4698.1343l-.0492.0412c-.1254.117-.1881.267-.1881.45 0 .1831.0502.3383.1505.4654s.2658.2467.4964.3585l.8726.2899c.1906.0814.321.1704.3912.267.0702.0967.1053.2162.1053.3586v8.8188c0 .2645-.0451.4679-.1354.6103-.0902.1424-.2156.239-.3761.2899l-.6469.1984c-.1806.0712-.3135.1627-.3987.2746-.0853.1119-.1279.2594-.1279.4425 0 .2136.0627.3788.1881.4958.1253.117.2883.1755.4889.1755h8.3048zm11.7802-.4425c-.9729.4984-2.0963.7476-3.3701.7476-1.4042 0-2.6378-.2924-3.701-.8773-1.0632-.5848-1.8932-1.4037-2.49-2.4564-.5967-1.0528-.8951-2.2708-.8951-3.6542 0-1.4545.2883-2.7285.8651-3.822.5767-1.0934 1.4117-1.9453 2.5049-2.5556 1.0933-.6103 2.4072-.9155 3.9418-.9155 1.3039 0 2.4273.2569 3.3701.7705.9428.5137 1.6675 1.2105 2.174 2.0903.5065.8799.7597 1.8589.7597 2.9371 0 .4679-.1253.8366-.3761 1.1061l-.0598.0599c-.2471.2296-.5883.3445-1.0234.3445h-6.8776l.0147.0704c.1825.8376.4942 1.5084.9352 2.0122.7522.8595 1.7552 1.2893 3.009 1.2893.8024 0 1.512-.1831 2.1288-.5493.6169-.3662 1.0306-.8748 1.2412-1.5257.1204-.1323.2282-.2213.3235-.2671.0953-.0457.178-.0686.2482-.0686.1003 0 .1856.0407.2558.122.0702.0814.1053.2187.1053.412 0 .9968-.2708 1.9097-.8124 2.7387-.5416.829-1.2989 1.4927-2.2718 1.9911zm-5.3345-7.4481a11.9793 11.9793 0 01-.0215-.7299c0-.9561.0702-1.7088.2106-2.2581.1405-.5493.321-.9383.5417-1.1672.2206-.2288.4663-.3433.7372-.3433.351 0 .6795.3001.9854.9002.3059.6001.4589 1.597.4589 2.9905 0 .4272-.1906.6408-.5717.6408h-2.3387l-.0019-.033zm19.7172 7.4481c-.973.4984-2.096.7476-3.37.7476-1.404 0-2.6377-.2924-3.7009-.8773-1.0631-.5848-1.8931-1.4037-2.4899-2.4564-.5968-1.0528-.8952-2.2708-.8952-3.6542 0-1.4545.2884-2.7285.8651-3.822.5767-1.0934 1.4117-1.9453 2.505-2.5556 1.0933-.6103 2.4069-.9155 3.9419-.9155 1.304 0 2.427.2569 3.37.7705.943.5137 1.667 1.2105 2.174 2.0903.506.8799.76 1.8589.76 2.9371 0 .4679-.126.8366-.376 1.1061l-.06.0599c-.247.2296-.589.3445-1.024.3445h-6.877l.014.0704c.183.8376.495 1.5084.936 2.0122.752.8595 1.755 1.2893 3.009 1.2893.802 0 1.512-.1831 2.128-.5493.617-.3662 1.031-.8748 1.242-1.5257.12-.1323.228-.2213.323-.2671.095-.0457.178-.0686.248-.0686.101 0 .186.0407.256.122.07.0814.105.2187.105.412 0 .9968-.27 1.9097-.812 2.7387-.542.829-1.299 1.4927-2.272 1.9911zm-5.334-7.4481a11.4315 11.4315 0 01-.022-.7299c0-.9561.07-1.7088.211-2.2581.14-.5493.321-.9383.542-1.1672.22-.2288.466-.3433.737-.3433.351 0 .679.3001.985.9002.306.6001.459 1.597.459 2.9905 0 .4272-.191.6408-.572.6408h-2.338l-.002-.033zm18.16 7.6999c-.125.1271-.308.1907-.549.1907h-7.523c-.22 0-.393-.061-.519-.1831-.125-.1221-.188-.2899-.188-.5035 0-.1628.038-.2975.113-.4043.075-.1068.178-.206.309-.2975l.346-.1374c.13-.061.22-.1576.27-.2899.051-.1322.076-.3509.076-.656v-7.7508c0-.2441-.028-.4196-.083-.5264-.055-.1068-.148-.1907-.278-.2518l-.392-.0457c-.14-.0814-.243-.1679-.308-.2594-.065-.0915-.098-.2085-.098-.3509 0-.1628.05-.3077.151-.4349.1-.1271.27-.2364.511-.328l4.273-1.2359c.251-.1017.461-.1729.632-.2136.17-.0406.316-.061.436-.061.171 0 .299.061.384.1831l.027.0443c.071.1275.119.3315.146.6118l.114 2.3708.026-.0875c.051-.1652.107-.3236.168-.4753.366-.9104.85-1.5868 1.452-2.0293.602-.4424 1.259-.6637 1.971-.6637.863 0 1.524.29 1.986.8697.461.5798.692 1.4596.692 2.6396 0 1.1697-.241 2.0292-.722 2.5785-.482.5492-1.104.8239-1.866.8239-.742 0-1.291-.1882-1.647-.5646-.356-.3763-.544-.9103-.564-1.602l-.015-.6103c-.01-.2339-.056-.417-.136-.5493-.08-.1322-.21-.1983-.391-.1983-.181 0-.339.0941-.474.2823-.135.1881-.238.4755-.308.862-.071.3865-.106.8799-.106 1.48v5.3706c0 .2848.045.5111.136.679.09.1678.23.2721.421.3127l1.128.2289c.211.0305.361.1094.452.2365.09.1271.135.2772.135.4501 0 .2034-.063.3687-.188.4959zm12.028.4653c1.495 0 2.806-.3102 3.935-.9307 1.128-.6205 2.011-1.4622 2.648-2.5251.637-1.0629.955-2.2657.955-3.6084 0-1.4139-.306-2.6599-.918-3.7381-.612-1.0782-1.464-1.9224-2.557-2.5327-1.094-.6103-2.372-.9155-3.837-.9155-1.474 0-2.778.3154-3.912.946-1.133.6306-2.021 1.4825-2.662 2.5556-.642 1.0731-.963 2.281-.963 3.6237 0 1.4037.306 2.6395.917 3.7075.612 1.0681 1.467 1.9047 2.566 2.5099 1.098.6052 2.374.9078 3.828.9078zm.234-1.9987c.296.3356.599.473.91.4119.311-.061.544-.3051.699-.7323.156-.4272.221-1.0604.196-1.8996-.025-.8391-.158-1.9046-.399-3.1964-.24-1.2918-.496-2.3344-.767-3.1278-.271-.7934-.554-1.3579-.85-1.6936-.296-.3356-.599-.473-.91-.412-.311.0713-.542.3205-.692.7477-.151.4272-.211 1.0578-.181 1.8919.03.8341.161 1.897.391 3.1888.241 1.2918.494 2.3344.76 3.1278.266.7934.547 1.3579.843 1.6936zm19.235 2.0292c.842 0 1.534-.1551 2.076-.4653.541-.3103.945-.679 1.211-1.1062.266-.4272.399-.8188.399-1.1748 0-.1526-.033-.2797-.098-.3815-.065-.1017-.153-.1525-.263-.1525a.294.294 0 00-.136.0305.2984.2984 0 00-.105.0915c-.05.1831-.128.3103-.233.3815-.106.0712-.219.1068-.339.1068-.17 0-.298-.0585-.384-.1755-.085-.117-.127-.2721-.127-.4653v-6.7438c0-1.3427-.454-2.3828-1.362-3.1202-.908-.7374-2.329-1.1062-4.265-1.1062-1.505 0-2.761.1882-3.769.5646-1.008.3763-1.765.857-2.272 1.4418-.506.5849-.76 1.1824-.76 1.7927 0 .651.189 1.1469.565 1.4877.376.3407.92.5111 1.632.5111.873 0 1.56-.2365 2.061-.7095.502-.473.752-1.0858.752-1.8385v-1.1596c0-.2848.088-.506.264-.6637.175-.1577.393-.2365.654-.2365.281 0 .504.1043.67.3128.165.2085.248.4908.248.8468v4.4475l-.08-.0174c-.242-.0467-.523-.0734-.841-.0801l-.162-.0016c-2.157 0-3.764.3661-4.822 1.0985-1.058.7324-1.587 1.7546-1.587 3.0668 0 .9968.363 1.8156 1.09 2.4564.727.6408 1.693.9612 2.896.9612.903 0 1.746-.1856 2.528-.5569.587-.2784 1.063-.6441 1.43-1.0971l.021-.0264.022.0683c.116.3297.328.6252.636.8864l.095.0773c.557.4323 1.342.6484 2.355.6484zm-5.183-2.876c.245.3306.569.4959.97.4959l.086-.003c.171-.0119.337-.0596.497-.1431l.049-.0277v-3.9152l-.075-.0229c-.171-.0458-.371-.0687-.602-.0687-.391 0-.705.1831-.94.5493-.236.3662-.354.9053-.354 1.6173 0 .6815.123 1.1875.369 1.5181zm15.789 2.9218c1.786 0 3.155-.4119 4.108-1.2359.952-.8239 1.429-1.9478 1.429-3.3719 0-.8645-.161-1.6223-.482-2.2733-.321-.651-.882-1.2282-1.685-1.7317-.802-.5035-1.93-.9791-3.385-1.4266-.541-.1729-.96-.3484-1.256-.5264-.296-.178-.499-.3687-.609-.5721-.111-.2035-.166-.4222-.166-.6561 0-.3459.126-.6256.376-.8392.251-.2136.622-.3204 1.114-.3204.682 0 1.326.2289 1.933.6866s1.276 1.2409 2.008 2.3496c.191.234.382.4044.572.5112.191.1068.371.1398.542.0991.21-.061.341-.2008.391-.4195.05-.2187.04-.5315-.03-.9384l-.391-2.8073c-.04-.295-.116-.5035-.226-.6256-.11-.122-.256-.183-.436-.183-.161 0-.361.0559-.602.1677-.241.112-.479.2264-.715.3433-.235.117-.414.1755-.534.1755-.11 0-.273-.061-.489-.183-.215-.1221-.519-.2442-.91-.3663-.391-.122-.898-.183-1.52-.183-1.033 0-1.963.1881-2.79.5645-.828.3763-1.48.9129-1.956 1.6096-.477.6968-.715 1.5283-.715 2.4946 0 .8544.178 1.6021.534 2.2429.356.6408.9 1.1901 1.633 1.6478.732.4577 1.655.829 2.768 1.1138.722.1932 1.276.389 1.662.5874.386.1983.652.4145.798.6484.145.234.218.4934.218.7782 0 .3763-.126.6865-.376.9307-.251.2441-.632.3661-1.144.3661-.481 0-.94-.1042-1.376-.3127-.437-.2086-.885-.5671-1.347-1.0757-.461-.5086-.978-1.2053-1.549-2.0903-.171-.2339-.364-.3967-.58-.4882-.215-.0915-.433-.0865-.654.0153-.211.0813-.346.2543-.406.5187-.061.2645-.045.59.045.9765l.466 3.0362c.07.3052.171.5086.301.6103.13.1017.271.1526.421.1526.171 0 .379-.0559.625-.1678l.737-.3357c.246-.1119.444-.1678.594-.1678.151 0 .349.0559.594.1678.246.1119.567.2238.963.3357.397.1119.896.1678 1.497.1678zm14.263-.5722c-.662.351-1.444.5264-2.347.5264-1.525 0-2.671-.3712-3.438-1.1138-.767-.7425-1.151-1.9122-1.151-3.5092v-6.8964c0-.2136-.02-.3763-.06-.4882-.04-.1119-.14-.2034-.301-.2746l-.707-.2289c-.171-.0814-.281-.1805-.331-.2975-.05-.117-.075-.262-.075-.4349 0-.2136.075-.389.225-.5263.151-.1373.336-.206.557-.206h.737c.091 0 .186-.0356.286-.1068.1-.0712.236-.2136.406-.4272l2.784-2.3344c.2-.2441.401-.4298.601-.557.201-.127.402-.1906.602-.1906.231 0 .412.0712.542.2136l.041.0505c.103.1426.155.3496.155.6208l-.001 2.731h3.145c.221 0 .391.0484.511.145.121.0967.181.2467.181.4501 0 .2848-.125.529-.376.7324l-.056.042c-.253.1754-.636.2631-1.148.2631h-2.257l.001 6.9574c0 .7629.127 1.3274.383 1.6936.256.3662.63.5493 1.121.5493.211 0 .406-.0458.587-.1373.18-.0916.343-.2111.489-.3586.145-.1475.283-.3128.413-.4958.131-.1831.256-.3662.377-.5493.1-.0407.188-.0229.263.0534.075.0763.108.2314.098.4653-.071.8239-.299 1.5487-.685 2.1742-.386.6256-.91 1.1138-1.572 1.4647zm9.854.5264c1.274 0 2.397-.2492 3.37-.7476.973-.4984 1.731-1.1621 2.272-1.9911.542-.829.813-1.7419.813-2.7387 0-.1933-.035-.3306-.106-.412-.07-.0813-.155-.122-.255-.122-.071 0-.153.0229-.249.0686-.095.0458-.203.1348-.323.2671-.211.6509-.625 1.1595-1.241 1.5257-.617.3662-1.327.5493-2.129.5493-1.254 0-2.257-.4298-3.009-1.2893-.441-.5038-.753-1.1746-.935-2.0122l-.015-.0704h6.877c.436 0 .777-.1149 1.024-.3445l.06-.0599c.25-.2695.376-.6382.376-1.1061 0-1.0782-.253-2.0572-.76-2.9371-.506-.8798-1.231-1.5766-2.174-2.0903-.943-.5136-2.066-.7705-3.37-.7705-1.535 0-2.849.3052-3.942.9155s-1.928 1.4622-2.505 2.5556c-.576 1.0935-.865 2.3675-.865 3.822 0 1.3834.299 2.6014.895 3.6542.597 1.0527 1.427 1.8716 2.49 2.4564 1.063.5849 2.297.8773 3.701.8773zm-1.986-8.9256c0 .2525.008.4958.022.7299l.002.033h2.338c.382 0 .572-.2136.572-.6408 0-1.3935-.153-2.3904-.459-2.9905-.306-.6001-.634-.9002-.985-.9002-.271 0-.517.1144-.737.3433-.221.2289-.402.6179-.542 1.1672s-.211 1.302-.211 2.2581zm17.633 8.6205c.241 0 .424-.0636.549-.1907.126-.1272.188-.2925.188-.4959 0-.1729-.045-.323-.135-.4501-.09-.1271-.241-.206-.452-.2365l-1.128-.2289c-.19-.0406-.331-.1449-.421-.3127-.09-.1679-.136-.3942-.136-.679v-5.3706c0-.6001.036-1.0935.106-1.48.07-.3865.173-.6739.308-.862.136-.1882.294-.2823.474-.2823.181 0 .311.0661.391.1983.081.1323.126.3154.136.5493l.015.6103c.02.6917.208 1.2257.564 1.602.356.3764.905.5646 1.647.5646.763 0 1.384-.2747 1.866-.8239.481-.5493.722-1.4088.722-2.5785 0-1.18-.231-2.0598-.692-2.6396-.461-.5798-1.123-.8697-1.986-.8697-.712 0-1.369.2213-1.971.6637-.602.4425-1.086 1.1189-1.452 2.0293a5.6975 5.6975 0 00-.167.4753l-.027.0879-.114-2.3712c-.027-.2803-.075-.4842-.146-.6118l-.027-.0443c-.085-.122-.213-.183-.384-.183-.12 0-.266.0203-.436.061-.171.0406-.381.1118-.632.2135l-4.273 1.2359c-.24.0915-.411.2009-.511.328-.101.1272-.151.2721-.151.4349 0 .1424.033.2594.098.3509.065.0915.168.178.309.2594l.391.0457c.13.0611.223.145.278.2518.055.1068.083.2823.083.5264v7.7508c0 .3051-.025.5238-.075.656-.051.1323-.141.2289-.271.2899l-.346.1374c-.131.0915-.233.1907-.309.2975-.075.1068-.113.2415-.113.4043 0 .2136.063.3814.189.5035.125.1221.298.1831.519.1831h7.522zm15.842-.885c-.952.824-2.322 1.2359-4.107 1.2359-.602 0-1.101-.0559-1.497-.1678-.396-.1119-.717-.2238-.963-.3357-.245-.1119-.444-.1678-.594-.1678-.15 0-.349.0559-.594.1678l-.738.3357c-.245.1119-.453.1678-.624.1678-.15 0-.291-.0509-.421-.1526-.131-.1017-.231-.3051-.301-.6103l-.466-3.0362c-.091-.3865-.106-.712-.046-.9765.061-.2644.196-.4374.407-.5187.22-.1018.438-.1068.654-.0153.216.0915.409.2543.579.4882.572.885 1.089 1.5817 1.55 2.0903.461.5086.91.8671 1.346 1.0757.437.2085.896.3127 1.377.3127.512 0 .893-.122 1.144-.3661.25-.2442.376-.5544.376-.9307 0-.2848-.073-.5442-.219-.7782-.145-.2339-.411-.4501-.797-.6484-.386-.1984-.94-.3942-1.662-.5874-1.114-.2848-2.036-.6561-2.769-1.1138-.732-.4577-1.276-1.007-1.632-1.6478-.356-.6408-.534-1.3885-.534-2.2429 0-.9663.238-1.7978.715-2.4946.476-.6967 1.128-1.2333 1.955-1.6096.828-.3764 1.758-.5646 2.791-.5646.622 0 1.129.061 1.52.1831.391.122.694.2442.91.3662.216.122.379.1831.489.1831.12 0 .298-.0585.534-.1755.236-.117.474-.2314.715-.3433.24-.1118.441-.1678.601-.1678.181 0 .326.061.437.1831.11.122.185.3306.225.6256l.392 2.8073c.07.4069.08.7197.03.9384s-.181.3585-.391.4195c-.171.0407-.352.0077-.542-.0991-.191-.1068-.381-.2772-.572-.5112-.732-1.1087-1.401-1.8919-2.008-2.3496-.607-.4577-1.252-.6866-1.934-.6866-.491 0-.862.1068-1.113.3204s-.376.4933-.376.8392c0 .2339.055.4526.165.6561.111.2034.314.3941.61.5721.296.178.714.3535 1.256.5264 1.454.4475 2.583.9231 3.385 1.4266.803.5035 1.364 1.0807 1.685 1.7317.321.651.482 1.4088.482 2.2733 0 1.4241-.477 2.548-1.43 3.3719z" fill="#fff"/><path fill-rule="evenodd" clip-rule="evenodd" d="M13.2823 4.1037C10.0382.8623 5.2295.3957 2.5628 3.0653c-2.668 2.6682-2.2015 7.477 1.037 10.7198.864.864 1.8596 1.5245 2.9105 1.998.3447-2.0035 1.3333-3.9296 2.8342-5.5108-.497-.1772-1.0066-.3268-1.5383-.4722-3.1485-.864-4.713-3.4906-5.0786-6.57.3023.3635.5776.7448.852 1.125.5325.7377 1.062 1.4712 1.78 2.0624 1.1172.9198 2.3435 1.275 3.685 1.6634l.156.0452c.6354.1842 1.1879.457 1.6947.7754 1.3319-.9734 2.8342-1.6214 4.3849-1.8886-.4721-1.051-1.1339-2.0452-1.9979-2.9092zM7.7966 16.553c.2063-2.0063 1.1782-3.9684 2.7359-5.5261 3.2441-3.2414 8.0527-3.7094 10.7194-1.0385 2.6681 2.6682 2.2029 7.4771-1.0398 10.7199-1.5576 1.5577-3.5196 2.5297-5.5259 2.7374a8.085 8.085 0 01-.7906.0402c-1.7251 0-3.2662-.6051-4.4016-1.7405-1.307-1.3057-1.9107-3.1501-1.6974-5.1924zm4.7449 1.6463c1.0634-.8114 2.214-1.1326 3.4656-1.4746 3.1486-.864 4.7118-3.4907 5.0787-6.5701-.2998.3615-.573.7403-.8455 1.1179-.5341.7403-1.065 1.4763-1.7866 2.0695-1.1206.9214-2.3497 1.2771-3.6972 1.6671l-.1436.0416c-3.0807.8944-4.6038 3.4989-4.9555 6.5299.3035-.3646.5815-.7431.8581-1.1197.6003-.8174 1.1937-1.6255 2.026-2.2616z" fill="#0E8784"/></svg>